#!OML:ASF H:\Terrain\Patient Classification 1\Terrain2\Thursday\justin.ASF
:FULLY-SPECIFIED
:DEGREES
1363
root -0.0999752 17.8278 21.9449 361.006 -174.69 -354.479
lowerback 6.57072 0.0614619 4.52026
upperback 2.10329 0.0990352 4.10391
thorax -1.50028 -0.106228 1.69326
lowerneck -13.6804 0.91139 -9.72611
upperneck 38.3534 -1.81048 4.32466
head 16.0169 -3.01946 2.90291
rclavicle -1.78906e-014 7.95139e-015
rhumerus -29.5853 -13.0714 -76.8948
rradius 26.9258
rwrist -8.16045
rhand -19.3261 12.6406
rfingers 7.12502
rthumb 6.99038 -17.224
lclavicle -1.78906e-014 7.95139e-015
lhumerus -32.9311 3.53635 87.8016
lradius 34.6285
lwrist -2.36773
lhand -17.6258 20.2915
lfingers 7.12502
lthumb 8.63149 50.095
rfemur -4.72354 -7.49893 29.0367
rtibia 22.5479
rfoot -16.7941 0.570202
rtoes 19.8713
lfemur -19.7846 3.33779 -9.40228
ltibia 59.5017
lfoot -14.4641 -4.63251
ltoes -13.2089
1364
root -0.0932014 17.8456 21.9259 360.82 -174.82 -354.276
lowerback 6.90701 0.0693234 4.65316
upperback 2.04221 0.132912 4.25326
thorax -1.74951 -0.100973 1.77402
lowerneck -13.2818 0.993284 -9.70061
upperneck 38.2827 -1.7581 4.26236
head 15.8758 -3.01745 2.87463
rclavicle 1.17283e-014 -2.38542e-015
rhumerus -29.7046 -12.5173 -76.9083
rradius 27.0076
rwrist -8.55319
rhand -19.0861 12.611
rfingers 7.12502
rthumb 7.22206 -17.2457
lclavicle 1.17283e-014 -2.38542e-015
lhumerus -33.2799 3.96169 87.8053
lradius 34.4725
lwrist -3.09126
lhand -17.9759 20.307
lfingers 7.12502
lthumb 8.2936 50.1242
rfemur -3.94126 -7.54481 29.2611
rtibia 21.4952
rfoot -16.3107 0.579708
rtoes 18.8877
lfemur -20.9904 3.9017 -9.10769
ltibia 62.0175
lfoot -14.8441 -4.60483
ltoes -13.62
1365
root -0.0916755 17.8592 21.9082 360.603 -174.937 -354.061
lowerback 7.204 0.0830187 5.00672
upperback 2.07674 0.181627 4.27326
thorax -1.8758 -0.0856936 1.59516
lowerneck -13.1523 1.04014 -9.63783
upperneck 38.2933 -1.78606 4.36569
head 15.8505 -3.0145 2.90258
rclavicle 8.74653e-015 -7.15625e-015
rhumerus -29.6477 -12.22 -77.1236
rradius 27.0555
rwrist -8.94479
rhand -18.8841 12.3333
rfingers 7.12502
rthumb 7.41704 -17.5167
lclavicle 8.74653e-015 -7.15625e-015
lhumerus -33.4545 4.41576 87.5534
lradius 34.3391
lwrist -4.44878
lhand -16.4438 20.9962
lfingers 7.12502
lthumb 9.77199 50.7495
rfemur -3.13131 -7.79374 29.4532
rtibia 20.4104
rfoot -15.9121 0.719078
rtoes 16.7665
lfemur -22.1396 4.44718 -8.82079
ltibia 64.5108
lfoot -15.1049 -4.59837
ltoes -13.3621
1366
root -0.0885026 17.8669 21.8896 360.423 -175.13 -353.712
lowerback 7.42948 0.133005 5.51493
upperback 2.21533 0.264449 4.34954
thorax -1.8512 -0.0574026 1.38465
lowerneck -13.3136 0.975643 -9.6936
upperneck 38.2277 -1.82169 4.41637
head 15.8618 -3.01219 2.93153
rclavicle 5.96354e-015 -1.98785e-014
rhumerus -29.3678 -12.431 -77.1117
rradius 26.8799
rwrist -8.36904
rhand -19.276 12.127
rfingers 7.12502
rthumb 7.03873 -17.736
lclavicle 5.96354e-015 -1.98785e-014
lhumerus -33.3308 4.74913 87.4806
lradius 34.3061
lwrist -5.2768
lhand -14.332 22.6099
lfingers 7.12502
lthumb 11.809 52.257
rfemur -2.37952 -7.85251 29.8225
rtibia 19.3847
rfoot -15.4598 0.802213
rtoes 15.1555
lfemur -23.3216 5.08608 -8.37925
ltibia 66.9564
lfoot -15.4767 -4.36096
ltoes -14.5153
1367
root -0.0809713 17.8832 21.8754 360.287 -175.377 -353.659
lowerback 7.71138 0.272746 5.72614
upperback 2.43548 0.45434 4.30529
thorax -1.77231 0.0317647 1.20421
lowerneck -13.6359 0.769145 -9.54894
upperneck 38.056 -1.99383 4.30866
head 15.8713 -3.03328 2.83536
rclavicle -2.68359e-015 -5.725e-014
rhumerus -28.9167 -12.958 -77.0576
rradius 26.6383
rwrist -7.61739
rhand -19.0167 12.6559
rfingers 7.12502
rthumb 7.28907 -17.1985
lclavicle -2.68359e-015 -5.725e-014
lhumerus -32.9581 4.55207 87.6603
lradius 34.1806
lwrist -4.53305
lhand -14.8195 23.1811
lfingers 7.12502
lthumb 11.3388 52.8546
rfemur -1.72423 -7.54967 29.9241
rtibia 18.5129
rfoot -15.0286 0.637082
rtoes 14.7308
lfemur -24.6243 5.72804 -8.29268
ltibia 69.3611
lfoot -15.7461 -3.9463
ltoes -15.1939
1368
root -0.0780895 17.913 21.8649 360.374 -175.527 -354.122
lowerback 7.7936 0.404594 5.47298
upperback 2.55014 0.622408 4.09406
thorax -1.69796 0.12553 1.11005
lowerneck -13.7346 0.605907 -9.56987
upperneck 37.921 -2.22491 4.45843
head 15.8528 -3.08645 2.8685
rclavicle 1.75924e-014 5.96354e-014
rhumerus -28.6269 -13.0889 -77.2096
rradius 26.5753
rwrist -7.82783
rhand -19.0768 13.266
rfingers 7.12502
rthumb 7.23105 -16.5904
lclavicle 1.75924e-014 5.96354e-014
lhumerus -32.7791 4.22079 87.8588
lradius 33.5492
lwrist -2.14544
lhand -18.1666 19.0647
lfingers 7.12502
lthumb 8.10955 48.8891
rfemur -1.31553 -7.57769 29.4226
rtibia 17.6444
rfoot -14.6454 0.775877
rtoes 14.117
lfemur -26.1255 6.15859 -8.90203
ltibia 71.6479
lfoot -15.8282 -3.62832
ltoes -14.567
1369
root -0.0768564 17.9302 21.8492 360.496 -175.627 -354.45
lowerback 7.71027 0.487577 5.24516
upperback 2.5355 0.724307 3.99989
thorax -1.66835 0.183807 1.13002
lowerneck -13.4104 0.620412 -9.88723
upperneck 37.8567 -2.34639 4.90387
head 15.7601 -3.13315 3.09705
rclavicle 1.22253e-014 -1.51076e-014
rhumerus -28.6223 -12.8453 -77.2816
rradius 26.5226
rwrist -8.19192
rhand -19.532 13.2271
rfingers 7.12502
rthumb 6.79159 -16.644
lclavicle 1.22253e-014 -1.51076e-014
lhumerus -33.0141 4.01216 88.061
lradius 33.3542
lwrist -0.529455
lhand -19.6308 17.2924
lfingers 7.12502
lthumb 6.69626 47.1665
rfemur -0.911137 -7.73307 29.0572
rtibia 16.7139
rfoot -14.2633 0.994454
rtoes 13.5173
lfemur -27.6742 6.49347 -9.35645
ltibia 73.9427
lfoot -16.0649 -3.70397
ltoes -13.1234
